<mxfile host="app.diagrams.net" modified="2022-03-28T11:41:42.535Z" agent="5.0 (Windows NT 10.0; Win64; x64) AppleWebKit/537.36 (KHTML, like Gecko) Chrome/99.0.4844.74 Safari/537.36 Edg/99.0.1150.52" etag="Ft-w5AhZypI90Jiijf1S" version="17.2.4" type="github">
  <diagram id="hhS3jlFNJ8hkPKQO8N54" name="Page-1">
    <mxGraphModel dx="1038" dy="1748" grid="1" gridSize="10" guides="1" tooltips="1" connect="1" arrows="1" fold="1" page="1" pageScale="1" pageWidth="827" pageHeight="1169" math="0" shadow="0">
      <root>
        <mxCell id="0" />
        <mxCell id="1" parent="0" />
        <mxCell id="Y3XGHBYKEVT1RVaC8g7c-8" value="" style="edgeStyle=orthogonalEdgeStyle;rounded=0;orthogonalLoop=1;jettySize=auto;html=1;" edge="1" parent="1" source="Y3XGHBYKEVT1RVaC8g7c-1" target="Y3XGHBYKEVT1RVaC8g7c-4">
          <mxGeometry relative="1" as="geometry" />
        </mxCell>
        <mxCell id="Y3XGHBYKEVT1RVaC8g7c-1" value="publisher" style="rounded=0;whiteSpace=wrap;html=1;" vertex="1" parent="1">
          <mxGeometry x="10" y="70" width="120" height="60" as="geometry" />
        </mxCell>
        <mxCell id="Y3XGHBYKEVT1RVaC8g7c-10" value="" style="edgeStyle=orthogonalEdgeStyle;rounded=0;orthogonalLoop=1;jettySize=auto;html=1;" edge="1" parent="1" source="Y3XGHBYKEVT1RVaC8g7c-2" target="Y3XGHBYKEVT1RVaC8g7c-9">
          <mxGeometry relative="1" as="geometry" />
        </mxCell>
        <mxCell id="Y3XGHBYKEVT1RVaC8g7c-2" value="channel&lt;br&gt;channel" style="shape=cylinder3;whiteSpace=wrap;html=1;boundedLbl=1;backgroundOutline=1;size=15;" vertex="1" parent="1">
          <mxGeometry x="330" y="50" width="60" height="80" as="geometry" />
        </mxCell>
        <mxCell id="Y3XGHBYKEVT1RVaC8g7c-6" value="" style="edgeStyle=orthogonalEdgeStyle;rounded=0;orthogonalLoop=1;jettySize=auto;html=1;" edge="1" parent="1" source="Y3XGHBYKEVT1RVaC8g7c-4" target="Y3XGHBYKEVT1RVaC8g7c-5">
          <mxGeometry relative="1" as="geometry" />
        </mxCell>
        <mxCell id="Y3XGHBYKEVT1RVaC8g7c-7" value="" style="edgeStyle=orthogonalEdgeStyle;rounded=0;orthogonalLoop=1;jettySize=auto;html=1;" edge="1" parent="1" source="Y3XGHBYKEVT1RVaC8g7c-4" target="Y3XGHBYKEVT1RVaC8g7c-2">
          <mxGeometry relative="1" as="geometry" />
        </mxCell>
        <mxCell id="Y3XGHBYKEVT1RVaC8g7c-4" value="routing key" style="rounded=1;whiteSpace=wrap;html=1;" vertex="1" parent="1">
          <mxGeometry x="170" y="60" width="120" height="60" as="geometry" />
        </mxCell>
        <mxCell id="Y3XGHBYKEVT1RVaC8g7c-5" value="message" style="rounded=1;whiteSpace=wrap;html=1;" vertex="1" parent="1">
          <mxGeometry x="170" y="200" width="120" height="60" as="geometry" />
        </mxCell>
        <mxCell id="Y3XGHBYKEVT1RVaC8g7c-9" value="messagerouter" style="whiteSpace=wrap;html=1;" vertex="1" parent="1">
          <mxGeometry x="440" y="60" width="120" height="60" as="geometry" />
        </mxCell>
        <mxCell id="Y3XGHBYKEVT1RVaC8g7c-11" value="vm" style="rounded=0;whiteSpace=wrap;html=1;" vertex="1" parent="1">
          <mxGeometry x="440" y="20" width="120" height="60" as="geometry" />
        </mxCell>
        <mxCell id="Y3XGHBYKEVT1RVaC8g7c-12" value="exchange --queue" style="rounded=0;whiteSpace=wrap;html=1;" vertex="1" parent="1">
          <mxGeometry x="441" y="-20" width="120" height="60" as="geometry" />
        </mxCell>
        <mxCell id="Y3XGHBYKEVT1RVaC8g7c-13" value="channel&lt;br&gt;channel" style="shape=cylinder3;whiteSpace=wrap;html=1;boundedLbl=1;backgroundOutline=1;size=15;" vertex="1" parent="1">
          <mxGeometry x="580" y="40" width="60" height="80" as="geometry" />
        </mxCell>
        <mxCell id="Y3XGHBYKEVT1RVaC8g7c-14" value="client" style="rounded=0;whiteSpace=wrap;html=1;" vertex="1" parent="1">
          <mxGeometry x="680" y="50" width="120" height="60" as="geometry" />
        </mxCell>
      </root>
    </mxGraphModel>
  </diagram>
</mxfile>
